<svg width="116" height="79" viewBox="0 0 116 79" fill="none" xmlns="http://www.w3.org/2000/svg">
<g filter="url(#filter0_d)">
<path d="M4 10C4 4.47715 8.47715 0 14 0H102C107.523 0 112 4.47715 112 10V61C112 66.5228 107.523 71 102 71H14C8.47715 71 4 66.5228 4 61V10Z" fill="white"/>
</g>
<path d="M24.3359 15.1953H26.2207L30.2344 22.0215L34.2383 15.1953H36.0742L31.0742 23.5156V30H29.3164V23.5156L24.3359 15.1953ZM36.5625 22.5977C36.5625 21.4128 36.7253 20.3451 37.0508 19.3945C37.3763 18.4375 37.8223 17.6302 38.3887 16.9727C38.9551 16.3086 39.6289 15.8008 40.4102 15.4492C41.1914 15.0977 42.041 14.9219 42.959 14.9219C43.877 14.9219 44.7233 15.0977 45.498 15.4492C46.2728 15.8008 46.9434 16.3086 47.5098 16.9727C48.0762 17.6302 48.5189 18.4375 48.8379 19.3945C49.1569 20.3451 49.3164 21.4128 49.3164 22.5977C49.3164 23.7891 49.1569 24.86 48.8379 25.8105C48.5189 26.7611 48.0762 27.5684 47.5098 28.2324C46.9434 28.89 46.2728 29.3978 45.498 29.7559C44.7233 30.1074 43.877 30.2832 42.959 30.2832C42.041 30.2832 41.1914 30.1074 40.4102 29.7559C39.6289 29.3978 38.9551 28.89 38.3887 28.2324C37.8223 27.5684 37.3763 26.7611 37.0508 25.8105C36.7253 24.86 36.5625 23.7891 36.5625 22.5977ZM38.3398 22.5977C38.3398 23.5612 38.4538 24.4238 38.6816 25.1855C38.9095 25.9408 39.2253 26.5788 39.6289 27.0996C40.0326 27.6204 40.5176 28.0176 41.084 28.291C41.6569 28.5645 42.2819 28.7012 42.959 28.7012C43.623 28.7012 44.2383 28.5645 44.8047 28.291C45.3711 28.0176 45.8561 27.6204 46.2598 27.0996C46.6699 26.5788 46.9889 25.9408 47.2168 25.1855C47.4447 24.4238 47.5586 23.5612 47.5586 22.5977C47.5586 21.6406 47.4447 20.7845 47.2168 20.0293C46.9889 19.2741 46.6699 18.6393 46.2598 18.125C45.8561 17.6042 45.3711 17.207 44.8047 16.9336C44.2383 16.6602 43.623 16.5234 42.959 16.5234C42.2819 16.5234 41.6569 16.6602 41.084 16.9336C40.5176 17.207 40.0326 17.6042 39.6289 18.125C39.2253 18.6393 38.9095 19.2741 38.6816 20.0293C38.4538 20.7845 38.3398 21.6406 38.3398 22.5977ZM51.9629 24.8828V15.1953H53.7207V24.6387C53.7207 25.2376 53.7923 25.7845 53.9355 26.2793C54.0853 26.7741 54.3132 27.1973 54.6191 27.5488C54.9316 27.9004 55.3223 28.1771 55.791 28.3789C56.2663 28.5807 56.8294 28.6816 57.4805 28.6816C58.776 28.6816 59.7201 28.3171 60.3125 27.5879C60.9049 26.8522 61.2012 25.8822 61.2012 24.6777V15.1953H62.9395V24.8438C62.9395 25.612 62.8255 26.3281 62.5977 26.9922C62.3763 27.6497 62.0345 28.2227 61.5723 28.7109C61.11 29.1992 60.5404 29.5801 59.8633 29.8535C59.1862 30.127 58.3854 30.2637 57.4609 30.2637C56.5169 30.2637 55.6966 30.127 55 29.8535C54.3099 29.5801 53.737 29.2025 53.2812 28.7207C52.832 28.2389 52.5 27.6693 52.2852 27.0117C52.0703 26.3477 51.9629 25.638 51.9629 24.8828ZM66.4355 30V15.1953H71.5234C73.2161 15.1953 74.515 15.5436 75.4199 16.2402C76.3249 16.9303 76.7773 17.9622 76.7773 19.3359C76.7773 20.5404 76.4681 21.4616 75.8496 22.0996C75.2311 22.7376 74.3945 23.1706 73.3398 23.3984L76.9824 30H75.0586L71.5234 23.623H68.1836V30H66.4355ZM68.1836 22.0605H71.416C72.5749 22.0605 73.4668 21.8717 74.0918 21.4941C74.7233 21.11 75.0391 20.4134 75.0391 19.4043C75.0391 18.4277 74.7298 17.7507 74.1113 17.373C73.4928 16.9889 72.5879 16.7969 71.3965 16.7969H68.1836V22.0605ZM79.043 26.416L80.5176 25.7617C80.8887 26.7578 81.4323 27.5 82.1484 27.9883C82.8646 28.4766 83.7207 28.7207 84.7168 28.7207C85.7585 28.7207 86.5951 28.5124 87.2266 28.0957C87.8646 27.6725 88.1836 27.0671 88.1836 26.2793C88.1836 25.9212 88.125 25.599 88.0078 25.3125C87.8971 25.026 87.7018 24.7624 87.4219 24.5215C87.1419 24.2806 86.7611 24.0527 86.2793 23.8379C85.7975 23.623 85.1921 23.4049 84.4629 23.1836C83.6882 22.9427 82.9948 22.7018 82.3828 22.4609C81.7773 22.2201 81.263 21.9401 80.8398 21.6211C80.4232 21.3021 80.1009 20.9212 79.873 20.4785C79.6517 20.0293 79.541 19.4824 79.541 18.8379C79.541 18.278 79.6549 17.7604 79.8828 17.2852C80.1172 16.8034 80.4427 16.3867 80.8594 16.0352C81.2826 15.6771 81.7839 15.4036 82.3633 15.2148C82.9492 15.0195 83.5938 14.9219 84.2969 14.9219C85.0065 14.9219 85.6413 15.0065 86.2012 15.1758C86.7611 15.3385 87.2526 15.5697 87.6758 15.8691C88.1055 16.1686 88.4733 16.5234 88.7793 16.9336C89.0853 17.3372 89.3327 17.7734 89.5215 18.2422L88.1152 19.0234C87.7181 18.125 87.1973 17.4837 86.5527 17.0996C85.9147 16.7155 85.1562 16.5234 84.2773 16.5234C83.3333 16.5234 82.5977 16.7285 82.0703 17.1387C81.543 17.5423 81.2793 18.0632 81.2793 18.7012C81.2793 19.0983 81.3444 19.4336 81.4746 19.707C81.6113 19.9805 81.8327 20.2279 82.1387 20.4492C82.4447 20.6706 82.8483 20.8822 83.3496 21.084C83.8509 21.2793 84.4596 21.4909 85.1758 21.7188C85.9245 21.9466 86.5918 22.1908 87.1777 22.4512C87.7637 22.7116 88.2585 23.0111 88.6621 23.3496C89.0723 23.6882 89.3848 24.0853 89.5996 24.541C89.8145 24.9967 89.9219 25.5371 89.9219 26.1621C89.9219 26.7741 89.7949 27.334 89.541 27.8418C89.2871 28.3496 88.9258 28.7826 88.457 29.1406C87.9948 29.4987 87.4382 29.7786 86.7871 29.9805C86.1426 30.1823 85.4264 30.2832 84.6387 30.2832C83.2259 30.2832 82.0345 29.9349 81.0645 29.2383C80.1009 28.5352 79.4271 27.5944 79.043 26.416ZM32.9688 54V39.1953H34.7363V45.3965H42.3535V39.1953H44.1113V54H42.3535V47.0176H34.7363V54H32.9688ZM47.7539 54V39.1953H56.8359V40.8164H49.5215V45.4355H54.9609V47.0176H49.5215V52.3984H57.2559V54H47.7539ZM59.9414 54V39.1953H65.0293C66.722 39.1953 68.0208 39.5436 68.9258 40.2402C69.8307 40.9303 70.2832 41.9622 70.2832 43.3359C70.2832 44.5404 69.974 45.4616 69.3555 46.0996C68.737 46.7376 67.9004 47.1706 66.8457 47.3984L70.4883 54H68.5645L65.0293 47.623H61.6895V54H59.9414ZM61.6895 46.0605H64.9219C66.0807 46.0605 66.9727 45.8717 67.5977 45.4941C68.2292 45.11 68.5449 44.4134 68.5449 43.4043C68.5449 42.4277 68.2357 41.7507 67.6172 41.373C66.9987 40.9889 66.0938 40.7969 64.9023 40.7969H61.6895V46.0605ZM73.4766 54V39.1953H82.5586V40.8164H75.2441V45.4355H80.6836V47.0176H75.2441V52.3984H82.9785V54H73.4766Z" fill="black"/>
<defs>
<filter id="filter0_d" x="0" y="0" width="116" height="79" filterUnits="userSpaceOnUse" color-interpolation-filters="sRGB">
<feFlood flood-opacity="0" result="BackgroundImageFix"/>
<feColorMatrix in="SourceAlpha" type="matrix" values="0 0 0 0 0 0 0 0 0 0 0 0 0 0 0 0 0 0 127 0"/>
<feOffset dy="4"/>
<feGaussianBlur stdDeviation="2"/>
<feColorMatrix type="matrix" values="0 0 0 0 0 0 0 0 0 0 0 0 0 0 0 0 0 0 0.25 0"/>
<feBlend mode="normal" in2="BackgroundImageFix" result="effect1_dropShadow"/>
<feBlend mode="normal" in="SourceGraphic" in2="effect1_dropShadow" result="shape"/>
</filter>
</defs>
</svg>
