<svg width="62" height="60" viewBox="0 0 62 60" fill="none" xmlns="http://www.w3.org/2000/svg">
<path d="M40.2796 58.4758L40.2797 58.4757L40.2765 58.4674L33.5089 40.7862C33.5087 40.7857 33.5085 40.7852 33.5083 40.7847C33.3276 40.3003 33.568 39.7459 34.0339 39.536C36.3197 38.6941 38.1458 36.8941 39.1078 34.7456L39.1078 34.7455C41.1671 30.1444 39.1071 24.7709 34.5073 22.7123C29.9076 20.6536 24.5348 22.7117 22.4751 27.2495L22.475 27.2494L22.4701 27.261C21.5097 29.5339 21.4418 32.0716 22.3128 34.2976L22.3128 34.2976L22.315 34.303C23.2804 36.6842 25.1797 38.5183 27.5901 39.4183C28.0779 39.6014 28.3455 40.1516 28.1644 40.6643L21.2155 58.3415L21.2109 58.3532L21.2069 58.3651C21.129 58.5987 20.9564 58.7924 20.7291 58.8924C20.4633 58.977 20.1868 58.9716 19.9663 58.8925C4.5122 52.9179 -3.19854 35.5419 2.77323 20.0873C8.74605 4.63004 26.124 -3.08296 41.5802 2.88937C48.9942 5.77117 54.9668 11.444 58.2082 18.7072L58.2088 18.7086C59.8264 22.304 60.7125 26.1854 60.8155 30.1266C60.9185 34.0678 60.2365 37.9901 58.809 41.6652L58.8077 41.6686C55.7858 49.6272 49.5448 55.9722 41.6343 58.9843H41.2033H40.7269C40.6365 58.9378 40.5542 58.8767 40.4834 58.8032C40.3933 58.7095 40.3238 58.598 40.2796 58.4758ZM42.2216 56.6337C48.9851 53.601 54.2865 48.0326 56.9834 41.1284C62.6896 26.7984 55.7413 10.576 41.4111 4.83764L41.4094 4.837C38.0368 3.50084 34.4383 2.82692 30.8107 2.85207C15.3967 2.4532 2.59044 14.6428 2.18728 30.0562L2.18726 30.0569C2.04846 35.694 3.6186 41.2412 6.69129 45.9692C9.76398 50.6973 14.1954 54.385 19.403 56.5475L19.8547 56.7351L20.0307 56.2788L25.7933 41.3386L25.9436 40.949L25.5771 40.7487C20.2244 37.8237 18.2112 31.1589 21.1028 25.8136C22.4974 23.2472 24.8506 21.3366 27.6487 20.4988C30.4467 19.661 33.4625 19.964 36.038 21.3415C37.7862 22.2878 39.2463 23.6889 40.2639 25.3967C41.2816 27.1047 41.8189 29.0561 41.8189 31.0444C41.8189 33.0327 41.2816 34.984 40.2639 36.6921C39.2461 38.4001 37.7857 39.8014 36.037 40.7477L35.6689 40.9469L35.8188 41.3377L41.5814 56.3693L41.7618 56.8399L42.2216 56.6337Z" fill="#009F76" stroke="#009F76" stroke-width="0.953554"/>
</svg>
